HIERARCHY
ROOT Hips
{
	OFFSET 0.000000 0.000000 0.000000
	CHANNELS 6 Xposition Yposition Zposition Zrotation Yrotation Xrotation 
	JOINT LHipJoint
	{
		OFFSET 0.000000 0.000000 0.000000
		CHANNELS 3 Zrotation Yrotation Xrotation
		JOINT LeftUpLeg
		{
			OFFSET 1.363060 -1.794630 0.839290
			CHANNELS 3 Zrotation Yrotation Xrotation
			JOINT LeftLeg
			{
				OFFSET 2.448110 -6.726130 0.000000
				CHANNELS 3 Zrotation Yrotation Xrotation
				JOINT LeftFoot
				{
					OFFSET 2.562200 -7.039590 0.000000
					CHANNELS 3 Zrotation Yrotation Xrotation
					JOINT LeftToeBase
					{
						OFFSET 0.157640 -0.433110 2.322550
						CHANNELS 3 Zrotation Yrotation Xrotation
						End Site
						{
							OFFSET 0.000000 0.000000 0.000000
						}
					}
				}
			}
		}
	}
	JOINT RHipJoint
	{
		OFFSET 0.000000 0.000000 0.000000
		CHANNELS 3 Zrotation Yrotation Xrotation
		JOINT RightUpLeg
		{
			OFFSET -1.305520 -1.794630 0.839290
			CHANNELS 3 Zrotation Yrotation Xrotation
			JOINT RightLeg
			{
				OFFSET -2.542530 -6.985550 0.000000
				CHANNELS 3 Zrotation Yrotation Xrotation
				JOINT RightFoot
				{
					OFFSET -2.568260 -7.056230 0.000000
					CHANNELS 3 Zrotation Yrotation Xrotation
					JOINT RightToeBase
					{
						OFFSET -0.164730 -0.452590 2.363150
						CHANNELS 3 Zrotation Yrotation Xrotation
						End Site
						{
							OFFSET 0.000000 0.000000 0.000000
						}
					}
				}
			}
		}
	}
	JOINT LowerBack
	{
		OFFSET 0.000000 0.000000 0.000000
		CHANNELS 3 Zrotation Yrotation Xrotation
		JOINT Spine
		{
			OFFSET 0.028270 2.035590 -0.193380
			CHANNELS 3 Zrotation Yrotation Xrotation
			JOINT Spine1
			{
				OFFSET 0.056720 2.048850 -0.042750
				CHANNELS 3 Zrotation Yrotation Xrotation
				JOINT Neck
				{
					OFFSET 0.000000 0.000000 0.000000
					CHANNELS 3 Zrotation Yrotation Xrotation
					JOINT Neck1
					{
						OFFSET -0.054170 1.746240 0.172020
						CHANNELS 3 Zrotation Yrotation Xrotation
						JOINT Head
						{
							OFFSET 0.104070 1.761360 -0.123970
							CHANNELS 3 Zrotation Yrotation Xrotation
							End Site
							{
								OFFSET 0.000000 0.000000 0.000000
							}
						}
					}
				}
				JOINT LeftShoulder
				{
					OFFSET 0.000000 0.000000 0.000000
					CHANNELS 3 Zrotation Yrotation Xrotation
					JOINT LeftArm
					{
						OFFSET 3.362410 1.200890 -0.311210
						CHANNELS 3 Zrotation Yrotation Xrotation
						JOINT LeftForeArm
						{
							OFFSET 4.983000 -0.000000 -0.000000
							CHANNELS 3 Zrotation Yrotation Xrotation
							JOINT LeftHand
							{
								OFFSET 3.483560 -0.000000 -0.000000
								CHANNELS 3 Zrotation Yrotation Xrotation
								JOINT LeftFingerBase
								{
									OFFSET 0.000000 0.000000 0.000000
									CHANNELS 3 Zrotation Yrotation Xrotation
									JOINT LeftHandIndex1
									{
										OFFSET 0.715260 -0.000000 -0.000000
										CHANNELS 3 Zrotation Yrotation Xrotation
										End Site
										{
											OFFSET 0.000000 0.000000 0.000000
										}
									}
								}
								JOINT LThumb
								{
									OFFSET 0.000000 0.000000 0.000000
									CHANNELS 3 Zrotation Yrotation Xrotation
									End Site
									{
										OFFSET 0.000000 0.000000 0.000000
									}
								}
							}
						}
					}
				}
				JOINT RightShoulder
				{
					OFFSET 0.000000 0.000000 0.000000
					CHANNELS 3 Zrotation Yrotation Xrotation
					JOINT RightArm
					{
						OFFSET -3.136600 1.374050 -0.404650
						CHANNELS 3 Zrotation Yrotation Xrotation
						JOINT RightForeArm
						{
							OFFSET -5.241900 -0.000000 -0.000000
							CHANNELS 3 Zrotation Yrotation Xrotation
							JOINT RightHand
							{
								OFFSET -3.444170 -0.000000 -0.000000
								CHANNELS 3 Zrotation Yrotation Xrotation
								JOINT RightFingerBase
								{
									OFFSET 0.000000 0.000000 0.000000
									CHANNELS 3 Zrotation Yrotation Xrotation
									JOINT RightHandIndex1
									{
										OFFSET -0.622530 -0.000000 -0.000000
										CHANNELS 3 Zrotation Yrotation Xrotation
										End Site
										{
											OFFSET 0.000000 0.000000 0.000000
										}
									}
								}
								JOINT RThumb
								{
									OFFSET 0.000000 0.000000 0.000000
									CHANNELS 3 Zrotation Yrotation Xrotation
									End Site
									{
										OFFSET 0.000000 0.000000 0.000000
									}
								}
							}
						}
					}
				}
			}
		}
	}
}
MOTION
Frames: 9
Frame Time: 0.008333
1.911624 18.160283 6.118608 -12.467742 -45.341432 17.966411 0.028741 -1.024102 -1.206151 1.995162 -20.788106 -16.123400 5.384383 14.525848 43.578397 0.521574 -1.557786 6.319185 0.467500 -4.385500 -12.163700 -0.529062 0.779454 -1.412327 32.914443 -2.657813 -11.271120 -0.789349 -6.763439 17.778007 1.447815 -11.468778 -8.747506 -0.570800 -4.838400 13.448300 4.398766 1.698998 8.419949 -0.334711 2.969016 -6.243711 -3.674134 0.810938 -6.512097 -13.481129 -11.292425 -11.884052 2.919964 -13.038128 0.702116 1.808500 -6.803100 5.318800 4.973111 0.756180 0.509177 -79.696145 25.236444 -24.063305 14.059998 -28.080991 -3.910971 1.620227 2.804520 16.780061 16.765859 26.981450 6.621700 -7.125000 0.000000 0.000000 -13.902600 54.086700 -3.151700 -4.501448 -1.668834 -1.141060 -21.821254 20.071003 -85.522959 -121.188043 56.734760 -90.116343 -1.346625 0.216203 -0.539469 -12.626387 -22.345087 4.403300 7.125000 0.000000 0.000000 18.067800 -52.179900 -3.281400 
1.801447 18.162070 6.110865 -12.643508 -45.491372 18.113703 0.022865 -1.037580 -1.212673 1.789329 -20.641538 -16.715305 5.315901 14.463309 43.301252 0.491388 -1.435611 5.673509 0.475300 -4.421300 -12.264900 -0.525605 0.778094 -1.405336 33.346099 -2.789790 -10.872123 -0.756325 -6.654672 17.467821 1.425768 -11.350647 -8.776666 -0.585400 -4.898700 13.619900 4.471190 1.805657 8.366868 -0.374546 3.112765 -6.269337 -3.764580 0.877763 -6.519007 -13.455517 -11.375244 -11.830359 2.998239 -13.156675 0.794167 1.824900 -6.856300 5.355200 4.973896 0.769748 0.515641 -79.920461 25.017586 -23.375841 14.237026 -28.374720 -3.976613 1.599100 2.796356 16.680856 16.710422 26.746279 6.545800 -7.125000 0.000000 0.000000 -13.841700 53.860000 -3.060200 -4.518040 -1.673681 -1.128196 -22.062188 20.464454 -86.040735 -120.651698 56.880222 -89.705525 -1.359531 0.223264 -0.218931 -13.015992 -22.262012 4.538500 7.125000 0.000000 0.000000 17.667800 -52.168900 -3.200100 
1.692660 18.163261 6.103520 -12.818368 -45.661310 18.266794 0.015770 -1.051424 -1.218870 1.568442 -20.480034 -17.299331 5.224688 14.377174 42.934108 0.465394 -1.327553 5.051302 0.484300 -4.462400 -12.381400 -0.521837 0.776536 -1.398010 33.762396 -2.914164 -10.483813 -0.725292 -6.550152 17.170804 1.402120 -11.222906 -8.798279 -0.599100 -4.954900 13.779900 4.543913 1.920953 8.308652 -0.419047 3.267575 -6.295615 -3.861393 0.950046 -6.521581 -13.433911 -11.459402 -11.778866 3.079229 -13.276130 0.879796 1.843700 -6.909600 5.390500 4.972243 0.785233 0.521745 -80.138600 24.780326 -22.618764 14.441971 -28.705180 -4.052416 1.576669 2.786264 16.585308 16.659638 26.496593 6.469200 -7.125000 0.000000 0.000000 -13.770400 53.622100 -2.963300 -4.533761 -1.680223 -1.112858 -22.298089 20.922475 -86.418406 -120.047894 57.036278 -89.239845 -1.371179 0.231397 0.140978 -13.403526 -22.160049 4.669000 7.125000 0.000000 0.000000 17.259600 -52.139200 -3.109600 
1.585262 18.164055 6.096473 -12.993212 -45.851152 18.426301 0.007391 -1.065660 -1.224847 1.334426 -20.305132 -17.874525 5.111251 14.267152 42.477773 0.443931 -1.235589 4.459375 0.493000 -4.502000 -12.493400 -0.517868 0.774834 -1.390451 34.164172 -3.027837 -10.104391 -0.696235 -6.449878 16.886249 1.377298 -11.087620 -8.813171 -0.611900 -5.006600 13.927300 4.616959 2.044152 8.244401 -0.467196 3.432510 -6.322007 -3.961855 1.027550 -6.518110 -13.418610 -11.543932 -11.730558 3.163398 -13.394519 0.956251 1.865700 -6.962200 5.424300 4.968511 0.802752 0.527612 -80.353960 24.526322 -21.799268 14.676041 -29.071756 -4.138466 1.550920 2.774370 16.491132 16.592373 26.222947 6.381400 -7.125000 0.000000 0.000000 -13.704800 53.360300 -2.860300 -4.548839 -1.688676 -1.095040 -22.533657 21.442094 -86.659311 -119.365049 57.204361 -88.710152 -1.381997 0.241229 0.537105 -13.802920 -22.025689 4.797000 7.125000 0.000000 0.000000 16.824800 -52.080700 -3.002900 
1.479154 18.164254 6.089723 -13.172475 -46.062115 18.595406 -0.002219 -1.080267 -1.230643 1.092629 -20.114459 -18.438596 4.976190 14.132507 41.932225 0.427734 -1.167052 3.904654 0.501100 -4.537900 -12.595200 -0.513741 0.772937 -1.382654 34.555236 -3.129192 -9.733150 -0.669138 -6.354463 16.616359 1.351123 -10.943496 -8.822583 -0.624600 -5.057200 14.071700 4.691750 2.175682 8.174023 -0.518985 3.608003 -6.348436 -4.066908 1.110608 -6.508070 -13.404060 -11.628897 -11.686227 3.247093 -13.512786 1.025095 1.888400 -7.014500 5.456400 4.962486 0.822179 0.533139 -80.562759 24.259690 -20.918675 14.939340 -29.473485 -4.235217 1.522870 2.760481 16.400271 16.518940 25.929531 6.287700 -7.125000 0.000000 0.000000 -13.637300 53.080400 -2.751500 -4.563054 -1.699398 -1.074859 -22.769828 22.022041 -86.767941 -118.594494 57.383907 -88.109088 -1.390927 0.251853 0.968613 -14.192042 -21.882164 4.918400 7.125000 0.000000 0.000000 16.394400 -52.010700 -2.894000 
1.374238 18.163857 6.083272 -13.350395 -46.292107 18.771255 -0.013125 -1.095321 -1.236284 0.838485 -19.913917 -18.991766 4.821080 13.973620 41.301210 0.416352 -1.117737 3.393356 0.508900 -4.572900 -12.694200 -0.509349 0.770934 -1.374587 34.929959 -3.225804 -9.374656 -0.644146 -6.264261 16.362172 1.322674 -10.785179 -8.824532 -0.636100 -5.103000 14.202600 4.768267 2.313607 8.097039 -0.574815 3.791774 -6.375140 -4.177706 1.197637 -6.491630 -13.393107 -11.712875 -11.645683 3.333171 -13.628870 1.084212 1.913700 -7.065500 5.486400 4.953891 0.843705 0.538262 -80.765688 23.983115 -19.980008 15.232681 -29.910106 -4.343428 1.493515 2.745114 16.306564 16.451259 25.625316 6.194600 -7.125000 0.000000 0.000000 -13.561200 52.792600 -2.639300 -4.576570 -1.712449 -1.052292 -23.009880 22.660192 -86.749146 -117.721786 57.575541 -87.425027 -1.397916 0.263386 1.435128 -14.572757 -21.729126 5.033700 7.125000 0.000000 0.000000 15.966700 -51.929300 -2.782900 
1.270611 18.162963 6.077217 -13.531164 -46.541156 18.956521 -0.025298 -1.110792 -1.241868 0.576969 -19.703142 -19.533510 4.647485 13.790421 40.587301 0.408891 -1.083244 2.927444 0.517600 -4.611200 -12.803000 -0.504778 0.768829 -1.366300 35.291434 -3.316166 -9.029061 -0.621346 -6.180290 16.126192 1.291972 -10.612755 -8.819740 -0.646400 -5.143100 14.317100 4.847337 2.458765 8.013257 -0.634120 3.984749 -6.401733 -4.293563 1.289330 -6.467583 -13.385824 -11.796435 -11.609547 3.422493 -13.742686 1.133900 1.941600 -7.115200 5.514700 4.942849 0.867615 0.542926 -80.960741 23.697507 -18.989057 15.555790 -30.379360 -4.462990 1.462225 2.728071 16.214320 16.380153 25.306385 6.097800 -7.125000 0.000000 0.000000 -13.483600 52.491800 -2.523400 -4.589446 -1.728111 -1.027326 -23.256327 23.350669 -86.608004 -116.731450 57.778689 -86.644965 -1.402663 0.275728 1.935756 -14.939681 -21.572287 5.141800 7.125000 0.000000 0.000000 15.549500 -51.841300 -2.673100 
1.167978 18.161474 6.071559 -13.715485 -46.808765 19.151582 -0.038700 -1.126662 -1.247396 0.309777 -19.483680 -20.062404 4.457121 13.583168 39.794527 0.405069 -1.063537 2.508631 0.527000 -4.652000 -12.918500 -0.500020 0.766621 -1.357767 35.639535 -3.401959 -8.696353 -0.600851 -6.102732 15.909034 1.258517 -10.423332 -8.808274 -0.655700 -5.179300 14.420600 4.931023 2.609374 7.924085 -0.696782 4.185048 -6.428666 -4.415375 1.384571 -6.437619 -13.384443 -11.878327 -11.577573 3.518799 -13.852752 1.174878 1.973800 -7.162500 5.541700 4.929082 0.894024 0.547009 -81.148243 23.407574 -17.951896 15.909634 -30.880564 -4.594662 1.429580 2.709498 16.120477 16.312488 24.976089 6.000500 -7.125000 0.000000 0.000000 -13.399700 52.182300 -2.404600 -4.601622 -1.746318 -0.999710 -23.511804 24.093029 -86.349933 -115.603442 57.992745 -85.752617 -1.405073 0.289092 2.466581 -15.296529 -21.407786 5.243500 7.125000 0.000000 0.000000 15.137800 -51.743500 -2.562700 
1.066337 18.159489 6.066298 -13.903514 -47.094296 19.358158 -0.053312 -1.142931 -1.252954 0.039275 -19.256698 -20.580521 4.252499 13.352917 38.929494 0.404702 -1.058727 2.136225 0.536700 -4.694000 -13.037700 -0.495193 0.764384 -1.349046 35.974182 -3.484574 -8.379882 -0.582770 -6.032387 15.713116 1.222156 -10.215904 -8.789607 -0.663300 -5.208700 14.504600 5.016856 2.765982 7.827685 -0.761696 4.393300 -6.455664 -4.538883 1.483921 -6.399869 -13.386492 -11.958801 -11.550031 3.615866 -13.959637 1.205154 2.008000 -7.208300 5.566100 4.913093 0.922979 0.550409 -81.329861 23.113669 -16.873363 16.293812 -31.411908 -4.738542 1.395470 2.689331 16.030437 16.243792 24.633288 5.900900 -7.125000 0.000000 0.000000 -13.313400 51.862000 -2.283100 -4.613177 -1.767917 -0.969115 -23.783103 24.881661 -85.981665 -114.315239 58.215177 -84.728717 -1.404851 0.303281 3.025672 -15.641123 -21.242524 5.339600 7.125000 0.000000 0.000000 14.736400 -51.642400 -2.455200 
